<svg xmlns="http://www.w3.org/2000/svg" width="550" height="550" viewBox="0 0 550 550">
  <defs>
    <linearGradient id="grad1" x1="0%" y1="0%" x2="100%" y2="0%">
      <stop offset="0%" style="stop-color:#8a3ffc;stop-opacity:1" />
      <stop offset="100%" style="stop-color:#6f2dc8;stop-opacity:1" />
    </linearGradient>
    <radialGradient id="grad2" cx="50%" cy="50%" r="50%" fx="50%" fy="50%">
      <stop offset="0%" style="stop-color:#8a3ffc;stop-opacity:0.3" />
      <stop offset="100%" style="stop-color:#ffffff;stop-opacity:0" />
    </radialGradient>
  </defs>
  
  <!-- Background glow -->
  <circle cx="275" cy="280" r="200" fill="url(#grad2)" />
  
  <!-- Robot Body -->
  <rect x="200" y="200" width="150" height="200" rx="20" fill="#444" />
  
  <!-- Robot Head -->
  <rect x="210" y="120" width="130" height="100" rx="15" fill="#555" />
  
  <!-- Robot Eyes -->
  <circle cx="250" cy="160" r="15" fill="url(#grad1)" />
  <circle cx="300" cy="160" r="15" fill="url(#grad1)" />
  
  <!-- Robot Mouth -->
  <rect x="240" y="190" width="70" height="5" rx="2" fill="#333" />
  
  <!-- Robot Antenna -->
  <line x1="275" y1="120" x2="275" y2="90" stroke="#666" stroke-width="8" />
  <circle cx="275" cy="80" r="10" fill="url(#grad1)" />
  
  <!-- Robot Arms -->
  <rect x="150" y="230" width="50" height="15" rx="5" fill="#666" />
  <rect x="350" y="230" width="50" height="15" rx="5" fill="#666" />
  <rect x="150" y="230" width="10" height="100" rx="5" fill="#666" />
  <rect x="390" y="230" width="10" height="100" rx="5" fill="#666" />
  
  <!-- Robot Legs -->
  <rect x="230" y="400" width="20" height="80" rx="5" fill="#666" />
  <rect x="300" y="400" width="20" height="80" rx="5" fill="#666" />
  <rect x="220" y="470" width="40" height="15" rx="5" fill="#555" />
  <rect x="290" y="470" width="40" height="15" rx="5" fill="#555" />
  
  <!-- Robot Control Panel -->
  <rect x="225" y="230" width="100" height="50" rx="5" fill="#333" />
  <circle cx="245" cy="255" r="8" fill="url(#grad1)" />
  <circle cx="275" cy="255" r="8" fill="url(#grad1)" />
  <circle cx="305" cy="255" r="8" fill="url(#grad1)" />
</svg> 