<svg xmlns="http://www.w3.org/2000/svg" width="550" height="550" viewBox="0 0 550 550">
  <defs>
    <linearGradient id="grad1" x1="0%" y1="0%" x2="100%" y2="0%">
      <stop offset="0%" style="stop-color:#6e33f5;stop-opacity:1" />
      <stop offset="100%" style="stop-color:#aa44ff;stop-opacity:1" />
    </linearGradient>
  </defs>
  <!-- Robot head -->
  <rect x="175" y="100" width="200" height="150" rx="20" fill="#444" />
  <!-- Eyes -->
  <circle cx="225" cy="150" r="20" fill="url(#grad1)" />
  <circle cx="325" cy="150" r="20" fill="url(#grad1)" />
  <!-- Antenna -->
  <line x1="275" y1="100" x2="275" y2="60" stroke="#666" stroke-width="10" />
  <circle cx="275" cy="50" r="15" fill="url(#grad1)" />
  <!-- Body -->
  <rect x="200" y="250" width="150" height="180" rx="10" fill="#555" />
  <!-- Control panel -->
  <rect x="225" y="280" width="100" height="60" rx="5" fill="#333" />
  <circle cx="250" cy="310" r="10" fill="url(#grad1)" />
  <circle cx="275" cy="310" r="10" fill="url(#grad1)" />
  <circle cx="300" cy="310" r="10" fill="url(#grad1)" />
  <!-- Arms -->
  <rect x="150" y="270" width="50" height="15" rx="5" fill="#666" />
  <rect x="350" y="270" width="50" height="15" rx="5" fill="#666" />
  <!-- Legs -->
  <rect x="225" y="430" width="25" height="80" rx="5" fill="#666" />
  <rect x="300" y="430" width="25" height="80" rx="5" fill="#666" />
</svg> 